<svg width="1024" height="768" xmlns="http://www.w3.org/2000/svg">
  <defs>
    <linearGradient id="groundGradient" x1="0%" y1="0%" x2="0%" y2="100%">
      <stop offset="0%" style="stop-color:#228B22;stop-opacity:1" />
      <stop offset="100%" style="stop-color:#006400;stop-opacity:1" />
    </linearGradient>
  </defs>
  
  <!-- Ground base -->
  <rect x="0" y="600" width="1024" height="168" fill="url(#groundGradient)"/>
  
  <!-- Rolling hills -->
  <path d="M0,600 Q150,580 300,600 T600,590 T900,600 T1200,590 L1200,768 L0,768 Z" 
        fill="#32CD32" opacity="0.7"/>
  
  <!-- Trees -->
  <g fill="#006400">
    <!-- Tree 1 -->
    <rect x="98" y="580" width="4" height="20" fill="#654321"/>
    <circle cx="100" cy="575" r="12"/>
    
    <!-- Tree 2 -->
    <rect x="248" y="575" width="4" height="25" fill="#654321"/>
    <circle cx="250" cy="570" r="15"/>
    
    <!-- Tree 3 -->
    <rect x="398" y="578" width="4" height="22" fill="#654321"/>
    <circle cx="400" cy="573" r="13"/>
    
    <!-- Tree 4 -->
    <rect x="548" y="572" width="4" height="28" fill="#654321"/>
    <circle cx="550" cy="567" r="16"/>
    
    <!-- Tree 5 -->
    <rect x="698" y="576" width="4" height="24" fill="#654321"/>
    <circle cx="700" cy="571" r="14"/>
    
    <!-- Tree 6 -->
    <rect x="848" y="574" width="4" height="26" fill="#654321"/>
    <circle cx="850" cy="569" r="15"/>
  </g>
</svg>
